<svg width="58" height="51" xmlns="http://www.w3.org/2000/svg" xmlns:xlink="http://www.w3.org/1999/xlink"><defs><path d="M33.053 19.984L24.752 4.785c-.86-1.528-1.845-2.653-3.013-3.44C20.395.44 18.843 0 16.995 0c-1.849 0-3.4.44-4.741 1.345-1.172.79-2.155 1.92-3.009 3.459L.942 19.99c-.631 1.198-.965 2.72-.94 4.286.025 1.662.438 3.256 1.193 4.61.696 1.25 1.645 2.239 2.823 2.938C5.33 32.604 6.897 33 8.67 33h16.65c1.776 0 3.345-.396 4.66-1.178 1.18-.702 2.13-1.691 2.827-2.941.754-1.357 1.166-2.95 1.19-4.609.024-1.566-.31-3.088-.945-4.288zM29.708 24.2c-.014.88-.222 1.709-.603 2.393a3.37 3.37 0 0 1-1.23 1.289c-.667.395-1.526.596-2.554.596H8.67c-1.027 0-1.883-.2-2.546-.594A3.37 3.37 0 0 1 4.897 26.6c-.382-.686-.59-1.515-.605-2.398-.011-.77.133-1.501.394-2.002l8.271-15.127c.498-.897 1.025-1.525 1.61-1.92.63-.424 1.425-.631 2.428-.631s1.8.207 2.433.634c.589.396 1.12 1.022 1.617 1.908l8.266 15.132c.263.505.408 1.235.397 2.005z" id="a"/><path id="c" d="M.092.031h8.42V10H.093z"/><path id="e" d="M.028.069h7.725v9.873H.028z"/><path id="g" d="M.045.07h14.137v9.91H.045z"/></defs><g fill="none" fill-rule="evenodd"><g transform="translate(12)"><mask id="b" fill="#fff"><use xlink:href="#a"/></mask><use fill="#000" fill-rule="nonzero" xlink:href="#a"/><g mask="url(#b)"><path stroke="#979797" fill="#D8D8D8" d="M.5.5h33v32H.5z"/><path d="M0 0h34v33H0z" fill="#1C5784"/></g></g><path d="M6.37 46.77c0 .752-.205 1.345-.617 1.78-.412.434-1.017.652-1.815.652-.193 0-.386-.02-.58-.06a1.655 1.655 0 0 1-.52-.197 1.118 1.118 0 0 1-.377-.366 1.026 1.026 0 0 1-.144-.563c0-.356.115-.635.347-.84a2.42 2.42 0 0 1 .869-.474 5.021 5.021 0 0 1 1.139-.218c.411-.032.804-.05 1.177-.05h.522v.337zm1.371-4.485c-.309-.382-.73-.692-1.264-.93C5.943 41.12 5.264 41 4.44 41c-.58 0-1.139.083-1.68.247-.54.165-1.03.399-1.467.702-.219.145-.363.296-.434.454-.07.158-.106.31-.106.455 0 .263.083.48.25.652a.829.829 0 0 0 .619.257c.193 0 .398-.066.617-.198.335-.21.663-.382.985-.514a2.673 2.673 0 0 1 1.023-.197c.58 0 1.078.141 1.496.425.418.283.628.721.628 1.314v.237c-.721 0-1.458.037-2.21.109a8.394 8.394 0 0 0-2.057.445c-.618.224-1.123.546-1.515.968-.393.422-.589.988-.589 1.7 0 .553.112 1.017.338 1.393.225.376.508.679.85.91.34.23.714.394 1.119.493.405.099.794.148 1.168.148.656 0 1.242-.135 1.757-.405.514-.27.887-.616 1.12-1.038h.057v.139c0 .264.039.478.116.642.077.165.174.293.29.386a.873.873 0 0 0 .357.177c.122.027.228.04.318.04s.196-.013.319-.04a.874.874 0 0 0 .357-.177 1.05 1.05 0 0 0 .29-.386c.077-.164.115-.378.115-.642v-4.704a5.7 5.7 0 0 0-.183-1.423 3.36 3.36 0 0 0-.647-1.284z" fill="#1C5784"/><g transform="translate(48.571 41)"><mask id="d" fill="#fff"><use xlink:href="#c"/></mask><path d="M6.35 5.784c0 .749-.202 1.34-.606 1.773-.405.434-1 .65-1.783.65-.19 0-.38-.02-.569-.059-.19-.039-.36-.105-.512-.197a1.105 1.105 0 0 1-.37-.364 1.035 1.035 0 0 1-.142-.562c0-.354.114-.633.341-.837.228-.203.512-.361.854-.473a4.873 4.873 0 0 1 1.119-.217c.404-.032.79-.049 1.156-.049h.513v.335zm1.983-3.191c-.12-.473-.333-.9-.636-1.28C7.394.93 6.98.622 6.455.385 5.93.15 5.263.031 4.455.031a5.56 5.56 0 0 0-1.65.247 5.114 5.114 0 0 0-1.442.7c-.215.144-.357.295-.427.452-.07.158-.104.31-.104.454 0 .262.082.479.246.65.165.17.367.256.607.256.19 0 .392-.066.607-.197.329-.21.651-.381.967-.513a2.595 2.595 0 0 1 1.006-.196c.568 0 1.058.14 1.47.423.41.283.616.719.616 1.31v.236c-.708 0-1.432.037-2.172.109-.74.072-1.413.22-2.02.443-.606.223-1.103.545-1.488.965-.386.421-.579.985-.579 1.695 0 .551.11 1.014.332 1.389.221.374.5.676.834.906.335.23.702.394 1.1.493.399.098.781.147 1.148.147.645 0 1.22-.135 1.726-.404.505-.269.872-.614 1.1-1.034h.057V8.7c0 .263.037.477.113.64.076.164.171.293.285.384.114.092.23.151.35.178.12.026.225.04.314.04.088 0 .192-.014.312-.04a.855.855 0 0 0 .351-.178c.114-.091.209-.22.285-.384.076-.163.114-.377.114-.64V4.01c0-.473-.06-.945-.18-1.418z" fill="#1C5784" mask="url(#d)"/></g><g transform="translate(10 41)"><mask id="f" fill="#fff"><use xlink:href="#e"/></mask><path d="M2.946 2.965c.203-.285.46-.515.769-.69a2.142 2.142 0 0 1 1.074-.262c.271 0 .512.042.722.126.21.084.39.185.537.301.173.13.316.214.427.253a.954.954 0 0 0 .314.058c.297 0 .531-.103.705-.31.172-.208.259-.441.259-.7 0-.143-.04-.302-.12-.476-.081-.176-.25-.354-.51-.535A3.574 3.574 0 0 0 6.039.234 4.716 4.716 0 0 0 4.79.07c-.655 0-1.269.117-1.843.35a4.568 4.568 0 0 0-1.51.99A4.682 4.682 0 0 0 .408 2.966c-.253.61-.38 1.29-.38 2.04 0 .778.123 1.471.37 2.08.248.61.584 1.127 1.01 1.555.426.427.927.751 1.5.972a5.082 5.082 0 0 0 3.093.165c.44-.11.82-.282 1.14-.515.247-.182.408-.357.482-.525.074-.168.111-.337.111-.505a.975.975 0 0 0-.24-.651c-.161-.188-.384-.282-.667-.282-.21 0-.451.097-.723.291-.37.26-.809.389-1.315.389-.42 0-.781-.087-1.084-.262a2.448 2.448 0 0 1-.76-.68 2.916 2.916 0 0 1-.453-.953 4.002 4.002 0 0 1 0-2.157 3.03 3.03 0 0 1 .454-.962" fill="#1C5784" mask="url(#f)"/></g><path d="M29.598 41.938a.972.972 0 0 0-.357-.177 1.364 1.364 0 0 0-.312-.047 1.3 1.3 0 0 0-.322.047.98.98 0 0 0-.348.177.994.994 0 0 0-.286.382 1.54 1.54 0 0 0-.116.644v6.787c0 .26.039.475.116.643a.991.991 0 0 0 .286.382c.113.087.23.146.348.177a1.3 1.3 0 0 0 .322.047c.083 0 .187-.016.312-.047a.974.974 0 0 0 .357-.177.997.997 0 0 0 .286-.382c.077-.168.116-.382.116-.643v-6.787c0-.261-.039-.476-.116-.644a1 1 0 0 0-.286-.382" fill="#1C5784"/><g transform="translate(32.857 41)"><mask id="h" fill="#fff"><use xlink:href="#g"/></mask><path d="M13.4 1.252a3.02 3.02 0 0 0-1.037-.857C11.94.178 11.436.07 10.845.07c-.678 0-1.269.155-1.771.463-.503.309-.905.752-1.207 1.33a3.237 3.237 0 0 0-1.074-1.3C6.328.233 5.743.07 5.04.07c-.365 0-.697.05-.999.148a2.819 2.819 0 0 0-.801.404c-.233.17-.434.361-.603.571-.17.21-.305.433-.406.67h-.037V1.41c0-.263-.041-.476-.123-.64A1.037 1.037 0 0 0 1.78.395 1.042 1.042 0 0 0 1.43.218a1.216 1.216 0 0 0-.31-.05c-.089 0-.192.017-.312.05S.573.31.46.395C.347.481.25.605.168.77c-.082.164-.123.377-.123.64v7.25c0 .275.04.502.123.68.081.177.182.311.301.403.12.092.242.154.368.187.125.033.238.05.339.05.088 0 .198-.017.33-.05s.257-.095.377-.187c.119-.092.22-.226.301-.404.082-.177.123-.404.123-.68V4.602c0-.315.04-.627.122-.936.082-.308.201-.58.358-.817.157-.237.362-.43.613-.581.251-.151.547-.227.886-.227.578 0 1.002.194 1.272.581.27.388.406.877.406 1.468v4.57c0 .276.04.503.122.68.082.178.182.312.302.404.119.092.242.154.367.187.126.033.239.05.34.05.087 0 .197-.017.33-.05.131-.033.257-.095.376-.187.12-.092.22-.226.302-.404.081-.177.122-.404.122-.68V4.64c0-.301.038-.607.114-.915a2.68 2.68 0 0 1 .357-.838c.164-.25.371-.453.622-.61.252-.158.553-.237.905-.237.365 0 .657.079.877.237.22.157.392.358.518.6.126.244.207.516.245.818.038.302.057.59.057.867V8.66c0 .275.04.502.122.68.082.177.182.311.302.403.12.092.242.154.368.187.125.033.238.05.339.05.087 0 .198-.017.33-.05.131-.033.257-.095.376-.187.12-.092.22-.226.302-.404.082-.177.123-.404.123-.68V3.893c0-.486-.063-.959-.189-1.418a3.526 3.526 0 0 0-.594-1.222" fill="#1C5784" mask="url(#h)"/></g><path d="M26.19 49.043a1.064 1.064 0 0 0-.405-.317c-.179-.086-.407-.13-.684-.13h-2.723V42.33c0-.278-.043-.506-.128-.685a1.065 1.065 0 0 0-.318-.406 1.11 1.11 0 0 0-.386-.188 1.494 1.494 0 0 0-.357-.05c-.092 0-.208.017-.347.05a1.1 1.1 0 0 0-.396.188c-.125.092-.23.228-.317.406-.086.18-.129.407-.129.685V49.342c.006.79.515 1.658 1.716 1.658h2.866H24.667h-.055.073c.43-.006.64-.034.64-.034h-.003c.18-.018.334-.056.463-.118.178-.086.314-.192.406-.317.092-.126.155-.255.188-.387s.05-.251.05-.357c0-.092-.017-.208-.05-.347a1.099 1.099 0 0 0-.188-.397" fill="#1C5784"/></g></svg>